<svg id="Layer_1" data-name="Layer 1" xmlns="http://www.w3.org/2000/svg" width="150" height="50" viewBox="0 0 150 50"><defs><style>.cls-1{fill:#1d8e9a;}.cls-1,.cls-2{fill-rule:evenodd;}.cls-2{fill:#dc4f41;}.cls-3{fill:#101821;}</style></defs><g id="gasbuddy-color"><path class="cls-1" d="M17,9.52A15.48,15.48,0,1,0,32.48,25,15.48,15.48,0,0,0,17,9.52M17,8A17,17,0,1,1,0,25,17,17,0,0,1,17,8m.85,5.59c-2.17-.1-7.23.63-9,2-2.93,2.18,3.71,3.72,5.58,4.24,4,1.11,6.68,2.39,8.09,3.95,4.26,4.7-4.49,12.45-8.1,14.73A14.68,14.68,0,0,0,17,38.7,14.9,14.9,0,0,0,23.66,37c3.64-2,7.36-6.46,6.48-10.89a7.07,7.07,0,0,0-.76-2.08,10.93,10.93,0,0,0-5.46-4.4,50.92,50.92,0,0,0-8.17-2.41c-7-1.65,0-3,2.1-3.65"/><path id="path25490" class="cls-2" d="M9.87,36.72c5.91-2.82,11.31-8,11.13-10.91a4.06,4.06,0,0,0-2.38-3.06C14.94,20.66,7.52,20,7.35,17.57c-1.17,3.7,5.44,4.26,7.34,5.83,2.48,2-4,4.47-8.15,5.8-.38.12-1.3.37-2.4.66a13.75,13.75,0,0,0,5.73,6.86"/><path id="path25494" class="cls-3" d="M143.32,39.2,150,21.51h-3.11l-3.09,8.74-3.31-8.74h-3.08l4.85,12.28-1.94,5.41Zm-14.2-4.8a5.63,5.63,0,0,0,1.6-.23,5.53,5.53,0,0,0,1.35-.6,3.44,3.44,0,0,0,.94-.8l.34,1.33H136v-18h-3v6.74a3.54,3.54,0,0,0-.93-.8,5.22,5.22,0,0,0-1.33-.6,5.39,5.39,0,0,0-1.58-.23,6.53,6.53,0,0,0-2.61.51,6.1,6.1,0,0,0-2,1.4,6.31,6.31,0,0,0-1.33,2.1,7.32,7.32,0,0,0,0,5.16,6.17,6.17,0,0,0,1.33,2.09,6,6,0,0,0,2,1.41,6.53,6.53,0,0,0,2.61.51m.52-2.58a3.59,3.59,0,0,1-1.48-.3A3.52,3.52,0,0,1,127,30.7a3.6,3.6,0,0,1-.77-1.24,4.49,4.49,0,0,1,0-3.12,3.56,3.56,0,0,1,.77-1.23,3.41,3.41,0,0,1,1.18-.83,3.92,3.92,0,0,1,3,0,3.47,3.47,0,0,1,1.17.83,3.71,3.71,0,0,1,.77,1.23,4.64,4.64,0,0,1,0,3.12,3.76,3.76,0,0,1-.77,1.24,3.59,3.59,0,0,1-1.17.82,3.76,3.76,0,0,1-1.48.3M114.72,34.4a5.63,5.63,0,0,0,1.6-.23,5.37,5.37,0,0,0,1.35-.6,3.65,3.65,0,0,0,1-.8L119,34.1h2.62v-18h-3v6.74a3.77,3.77,0,0,0-.94-.8,5.15,5.15,0,0,0-1.32-.6,5.51,5.51,0,0,0-1.59-.23,6.53,6.53,0,0,0-2.61.51,6.14,6.14,0,0,0-2,1.4,6.47,6.47,0,0,0-1.33,2.1,7.32,7.32,0,0,0,0,5.16,6.32,6.32,0,0,0,1.33,2.09,6,6,0,0,0,2,1.41,6.53,6.53,0,0,0,2.61.51m.47-2.58a3.81,3.81,0,0,1-1.49-.3,3.63,3.63,0,0,1-1.18-.82,3.76,3.76,0,0,1-.77-1.24,4.49,4.49,0,0,1,0-3.12,3.71,3.71,0,0,1,.77-1.23,3.51,3.51,0,0,1,1.18-.83,3.95,3.95,0,0,1,3,0,3.53,3.53,0,0,1,1.16.83,3.71,3.71,0,0,1,.77,1.23,4.49,4.49,0,0,1,0,3.12,3.76,3.76,0,0,1-.77,1.24,3.65,3.65,0,0,1-1.16.82,3.8,3.8,0,0,1-1.48.3M100.55,34.4a4.57,4.57,0,0,0,1.56-.27,4.68,4.68,0,0,0,1.34-.73,3.45,3.45,0,0,0,.91-1l.35,1.75h2.46V21.51h-2.7V26.9a7.47,7.47,0,0,1-.41,2.64,3.47,3.47,0,0,1-1.15,1.61,2.86,2.86,0,0,1-1.73.55,2.47,2.47,0,0,1-2-.82,3.88,3.88,0,0,1-.7-2.5V21.51h-3v7.35A7.7,7.7,0,0,0,96,31.91a4,4,0,0,0,1.66,1.91,5.38,5.38,0,0,0,2.79.66M84.68,31.4V26h3.54a3.65,3.65,0,0,1,1.56.34,2.54,2.54,0,0,1,1,.93,2.84,2.84,0,0,1,0,2.87,2.54,2.54,0,0,1-1,.93,3.51,3.51,0,0,1-1.56.33Zm0-8.09v-3.9h2.69a2.72,2.72,0,0,1,1.17.24,2,2,0,0,1,.81.69,1.82,1.82,0,0,1,.3,1,1.75,1.75,0,0,1-.28,1,1.81,1.81,0,0,1-.74.68,2.49,2.49,0,0,1-1.08.25Zm-3,10.79H88.5a6.62,6.62,0,0,0,2.33-.39,5.5,5.5,0,0,0,1.83-1.09,5,5,0,0,0,1.18-1.71,5.55,5.55,0,0,0,.42-2.19A4.9,4.9,0,0,0,94,27a4.46,4.46,0,0,0-.77-1.33,4.62,4.62,0,0,0-1-.93A4.52,4.52,0,0,0,91,24.17a4.13,4.13,0,0,0,.59-.49,3.85,3.85,0,0,0,.57-.72A3.62,3.62,0,0,0,92.6,22a3.9,3.9,0,0,0,.18-1.1,4.44,4.44,0,0,0-.38-1.81,4.15,4.15,0,0,0-1.05-1.44,4.83,4.83,0,0,0-1.61-.93,6,6,0,0,0-2.07-.34h-6Zm-6.17.38a5.74,5.74,0,0,0,1.85-.29,4.61,4.61,0,0,0,1.46-.82,3.74,3.74,0,0,0,1-1.25,3.62,3.62,0,0,0,.35-1.58,3.8,3.8,0,0,0-.72-2.37,4.5,4.5,0,0,0-2.11-1.45L75.44,26a2.13,2.13,0,0,1-.82-.47,1,1,0,0,1-.29-.73.9.9,0,0,1,.32-.68,1.3,1.3,0,0,1,.84-.28,1.46,1.46,0,0,1,.89.33A1.94,1.94,0,0,1,77,25l2.28-1.41a4.17,4.17,0,0,0-1.51-1.7,4.28,4.28,0,0,0-2.28-.61,4.75,4.75,0,0,0-1.55.27,3.71,3.71,0,0,0-1.2.73,3.1,3.1,0,0,0-.78,1.06,3,3,0,0,0-.28,1.28A3.75,3.75,0,0,0,71.9,26a3.24,3.24,0,0,0,2,2l1.78.68a5.33,5.33,0,0,1,1,.5,1.79,1.79,0,0,1,.57.56,1.33,1.33,0,0,1,.17.72,1.27,1.27,0,0,1-.21.7,1.54,1.54,0,0,1-.63.54A2.74,2.74,0,0,1,74,31.49a2.81,2.81,0,0,1-1-1.38l-2.28,1.06a5.4,5.4,0,0,0,1,1.74,4.71,4.71,0,0,0,1.59,1.15,5.19,5.19,0,0,0,2.13.42M62.85,34.4a6,6,0,0,0,2.95-.79,3.62,3.62,0,0,0,1-.84l.35,1.33h2.57V21.51H67.11l-.35,1.33a4.08,4.08,0,0,0-1-.84,5.67,5.67,0,0,0-1.35-.58,6.21,6.21,0,0,0-1.58-.22,6.38,6.38,0,0,0-2.5.51,6.22,6.22,0,0,0-2,1.41,6.56,6.56,0,0,0-1.3,2.1,7.49,7.49,0,0,0,0,5.17,6.52,6.52,0,0,0,1.3,2.09,5.93,5.93,0,0,0,2,1.41,6,6,0,0,0,2.5.51m.39-2.58a3.64,3.64,0,0,1-2.67-1.12,3.76,3.76,0,0,1-.77-1.24,4.49,4.49,0,0,1,0-3.12,3.71,3.71,0,0,1,.77-1.23,3.51,3.51,0,0,1,1.18-.83,3.92,3.92,0,0,1,3,0,3.47,3.47,0,0,1,1.17.83,3.71,3.71,0,0,1,.77,1.23,4.49,4.49,0,0,1,0,3.12,3.76,3.76,0,0,1-.77,1.24,3.59,3.59,0,0,1-1.17.82,3.75,3.75,0,0,1-1.47.3M46.72,34.4a8.42,8.42,0,0,0,2.14-.27,7.12,7.12,0,0,0,1.9-.81A6.26,6.26,0,0,0,52.29,32l.53,2.11h2.47V24.5h-7.5v3h4.15a4.28,4.28,0,0,1-.73,2.16,4.16,4.16,0,0,1-1.73,1.44,5.9,5.9,0,0,1-2.54.52,4.74,4.74,0,0,1-2-.44,5.15,5.15,0,0,1-1.66-1.26,6,6,0,0,1-1.14-2,7.83,7.83,0,0,1-.42-2.55,7.3,7.3,0,0,1,.42-2.49,5.85,5.85,0,0,1,1.15-2,5.28,5.28,0,0,1,1.76-1.28,5.38,5.38,0,0,1,2.22-.46,5.79,5.79,0,0,1,1.66.23,5.22,5.22,0,0,1,1.35.62,5.57,5.57,0,0,1,1.08.89,6.48,6.48,0,0,1,.81,1l2.41-1.83a8.56,8.56,0,0,0-1.22-1.49,8.17,8.17,0,0,0-1.65-1.21,8.54,8.54,0,0,0-2-.82,10.26,10.26,0,0,0-2.41-.3,9.55,9.55,0,0,0-3.55.66A7.89,7.89,0,0,0,41,18.85a8.49,8.49,0,0,0-1.74,2.87,10.83,10.83,0,0,0-.62,3.7,11,11,0,0,0,.6,3.67A8.58,8.58,0,0,0,40.89,32a7.33,7.33,0,0,0,2.55,1.87,8,8,0,0,0,3.28.68"/></g></svg>