<svg xmlns="http://www.w3.org/2000/svg" viewBox="0 0 187.23 22">
  <path d="M12.33 17.38l-.72-11.27L8 17.38H5.88L2.32 6.05l-.63 11.33H0L.77 4.62H3.6L7 15.38l3.46-10.76h2.69l1 12.76zM28.34 14h-5.11l-1.11 3.39H20.3l4.32-12.77H27l4.33 12.76h-1.87zm-.48-1.46l-2.09-6.33-2.07 6.32zM39 17.38a6.11 6.11 0 0 1-1.93-1.11v-1.86a5.81 5.81 0 0 0 4 1.66 2.94 2.94 0 0 0 1.85-.5 1.75 1.75 0 0 0 .64-1.46 1.69 1.69 0 0 0-.21-.86 2.1 2.1 0 0 0-.71-.67 10.13 10.13 0 0 0-1.46-.74L40 11.33a5.44 5.44 0 0 1-2.13-1.46 3.2 3.2 0 0 1-.69-2.06A3.46 3.46 0 0 1 37.66 6a3.35 3.35 0 0 1 1.44-1.3 5 5 0 0 1 2.2-.45 5.87 5.87 0 0 1 2.13.37 4.44 4.44 0 0 1 1.46.9v1.89a6 6 0 0 0-1.62-1.11 4.82 4.82 0 0 0-1.93-.38 2.92 2.92 0 0 0-1.77.45A1.54 1.54 0 0 0 39 7.68a1.62 1.62 0 0 0 .24.89 2.29 2.29 0 0 0 .68.67 7.75 7.75 0 0 0 1.21.63l1.28.57a8.36 8.36 0 0 1 1.75 1 3.65 3.65 0 0 1 1 1.15 3.31 3.31 0 0 1 .25 1.41 3.7 3.7 0 0 1-.52 2 3.53 3.53 0 0 1-1.49 1.31 5 5 0 0 1-2.23.47 6.63 6.63 0 0 1-2.17-.4zM60.11 6.25h-3.84v11.13h-1.76V6.25h-3.72V4.62h9.32zM74.5 15.78v1.6h-8V4.62h7.9v1.61h-6.09v3.64H74v1.57h-5.69v4.34zM88.43 17.38l-5-6v6H81.7V4.62h4.92a4.2 4.2 0 0 1 2 .47A3.36 3.36 0 0 1 90 6.39a3.67 3.67 0 0 1 .47 1.88 3.52 3.52 0 0 1-.5 1.9 3.28 3.28 0 0 1-1.43 1.27 4.84 4.84 0 0 1-2.19.46H86l4.8 5.48zm-5-6.85H86a2.93 2.93 0 0 0 2-.58 2 2 0 0 0 .67-1.61A2 2 0 0 0 88 6.79a2.52 2.52 0 0 0-1.75-.56h-2.79zM113.12 4.62l-3.39 12.76h-2.23l-2.84-11.12-2.86 11.12h-2.25L96.31 4.62h1.9l2.48 10.8 2.78-10.8h2.39l2.75 10.82 2.63-10.82zM154.71 17.38l-5-6v6H148V4.62h4.92a4.21 4.21 0 0 1 2 .47 3.49 3.49 0 0 1 1.34 1.3 3.77 3.77 0 0 1 .47 1.88 3.53 3.53 0 0 1-.51 1.9 3.28 3.28 0 0 1-1.43 1.27 4.83 4.83 0 0 1-2.18.46h-.37l4.8 5.48zm-5-6.85h2.5a2.9 2.9 0 0 0 2-.58 2 2 0 0 0 .68-1.61 2 2 0 0 0-.61-1.55 2.47 2.47 0 0 0-1.74-.56h-2.8zM171.06 17.38L165.55 11v6.43h-1.76V4.62h1.76v5.73L171 4.62h2.37l-5.87 5.91 6 6.85zM180.83 17.38a6.11 6.11 0 0 1-1.93-1.11v-1.86a5.81 5.81 0 0 0 4 1.66 2.94 2.94 0 0 0 1.85-.5 1.75 1.75 0 0 0 .64-1.46 1.69 1.69 0 0 0-.21-.86 2.1 2.1 0 0 0-.71-.67 10.13 10.13 0 0 0-1.46-.74l-1.18-.51a5.44 5.44 0 0 1-2.13-1.46 3.21 3.21 0 0 1-.7-2.06 3.46 3.46 0 0 1 .5-1.85 3.35 3.35 0 0 1 1.44-1.26 5 5 0 0 1 2.2-.45 5.87 5.87 0 0 1 2.13.37 4.44 4.44 0 0 1 1.46.9v1.89a6 6 0 0 0-1.62-1.11 4.82 4.82 0 0 0-1.93-.38 2.92 2.92 0 0 0-1.77.45 1.54 1.54 0 0 0-.6 1.31 1.62 1.62 0 0 0 .24.89 2.18 2.18 0 0 0 .68.67 7.75 7.75 0 0 0 1.21.63l1.28.57a8.36 8.36 0 0 1 1.75 1 3.65 3.65 0 0 1 1 1.15 3.31 3.31 0 0 1 .31 1.44 3.7 3.7 0 0 1-.52 1.94 3.53 3.53 0 0 1-1.49 1.31 5 5 0 0 1-2.23.47 6.63 6.63 0 0 1-2.21-.37zM140.67 22h-22V0h22zm-20.23-1.76h18.47V1.76h-18.47z"/>
  <path d="M129.67 4.25a6.75 6.75 0 1 0 6.75 6.75 6.75 6.75 0 0 0-6.75-6.75zm0 11.73a5 5 0 1 1 5-5 5 5 0 0 1-5 5.02z"/>
</svg>
