<?xml version="1.0" encoding="UTF-8"?>
<svg id="Layer_1" data-name="Layer 1" xmlns="http://www.w3.org/2000/svg" viewBox="0 0 400 193.91">
  <defs>
    <style>
      .cls-1 {
        fill-rule: evenodd;
        stroke-width: 0px;
      }
    </style>
  </defs>
  <g id="Layer_2" data-name="Layer 2">
    <g id="Layer_1-2" data-name="Layer 1-2">
      <g>
        <path class="cls-1" d="M209.98,74c-3.24-2.73-8.79-4.1-16.64-4.1h-17.7v54.67h13.23v-17.13h5.92c7.19,0,12.47-1.58,15.82-4.75,3.84-3.69,5.91-8.84,5.68-14.16.25-5.56-2.08-10.92-6.32-14.52M194.48,95.08h-5.61v-12.8h5.03c6.12,0,9.18,2.15,9.18,6.44s-2.87,6.35-8.61,6.36M238.94,69.9h-13.79v54.67h29.78v-12.38h-15.99v-42.29ZM281.95,69.9l-21.67,54.67h14.85l2.84-7.95h18.83l2.59,7.95h15.02l-21.52-54.67h-10.95ZM281.79,105.57l5.68-18.7,5.6,18.69h-11.28Z"/>
        <path class="cls-1" d="M321.31,124.57h13.8v-54.67h-13.8v54.67ZM388.67,80.15c-1.74-2.53-3.98-4.67-6.58-6.31-5.2-2.88-11.11-4.24-17.04-3.93h-18.18v54.67h21.26c6.97.3,13.73-2.45,18.5-7.54,4.83-5.51,7.33-12.68,6.97-20,.18-6.01-1.55-11.92-4.95-16.88M366.58,112.19h-5.92v-29.92h6c3.67-.22,7.25,1.23,9.73,3.96,2.46,3.2,3.67,7.18,3.41,11.21,0,9.84-4.41,14.75-13.23,14.75M63.64,24l-44.71,11.71-12.32,44.96,15.41,15.82-15.66,15.56,11.59,45.16,44.52,12.44,15.66-15.56,15.41,15.82,44.71-11.71,12.32-44.96-15.41-15.82,15.66-15.56-11.59-45.16-44.52-12.44-15.66,15.56-15.41-15.82ZM36.19,44.36l23.55-6.16,10.3,10.57-15.02,14.91-18.83-19.32ZM87.9,48.9l10.47-10.4,23.45,6.55-19.13,19.02-14.79-15.17ZM20.72,76.98l6.48-23.67,18.83,19.32-15.03,14.91-10.28-10.57h0ZM111.53,73.16l19.13-19.02,6.11,23.79-10.45,10.4-14.78-15.17ZM63.88,72.77l15.02-14.91,14.78,15.17-15.02,14.91-14.78-15.17ZM39.87,96.63l15.02-14.91,14.78,15.17-15.02,14.91-14.78-15.17ZM87.53,97.02l15.02-14.91,14.76,15.17-15.02,14.91-14.76-15.17ZM20.41,115.97l10.47-10.4,14.77,15.17-19.14,19.01-6.1-23.78ZM63.51,120.89l15.02-14.91,14.78,15.17-15.02,14.91-14.78-15.17ZM111.14,121.27l15.02-14.91,10.3,10.57-6.48,23.67-18.83-19.32ZM35.36,148.83l19.13-19.02,14.79,15.17-10.47,10.4-23.45-6.53v-.02ZM87.13,145.13l15.02-14.91,18.83,19.33-23.55,6.16-10.29-10.57Z"/>
      </g>
    </g>
  </g>
</svg>