<?xml version="1.0" encoding="UTF-8"?>
<svg id="Layer_1" data-name="Layer 1" xmlns="http://www.w3.org/2000/svg" viewBox="0 0 400 193.91">
  <defs>
    <style>
      .cls-1 {
        fill: #221f1f;
      }

      .cls-1, .cls-2 {
        stroke-width: 0px;
      }

      .cls-2 {
        fill: #1681d8;
      }
    </style>
  </defs>
  <g id="Layer_2" data-name="Layer 2">
    <g id="Layer_1-2" data-name="Layer 1-2">
      <g id="Layer_2-2" data-name="Layer 2-2">
        <g id="Layer_1-2-2" data-name="Layer 1-2-2">
          <circle class="cls-2" cx="246.35" cy="29.45" r="10.44"/>
          <polygon class="cls-1" points="204.08 181.99 225.8 181.99 251.01 62.96 229.28 62.96 204.08 181.99"/>
          <path class="cls-1" d="M363.76,80.47h24.72l3.94-17.5h-24.73l7.18-34.01h-21.63l-7.18,33.51h-37.49l3.38-15.13c1.5-7.21,4.97-15.43,10.85-18.11,4.73-1.89,9.82-2.71,14.9-2.42l3.91-17.55c-3.62-.62-7.28-.92-10.95-.9-23.7,0-35.47,16.46-40.31,38.82l-3.5,15.79h-18.51l-3.94,17.5h18.51l-21.23,101.52h21.63l21.38-102.02h37.37l-15.29,73.19c-4.17,19.94,1.36,29.98,21.22,29.98,5.88.25,11.76-.45,17.42-2.08l3.73-16.72c-3.77.67-7.59.99-11.42.96-10.1,0-10.67-5.15-8.5-15.36l14.53-69.46Z"/>
          <path class="cls-2" d="M14.22,99.93c-3.67,0-6.65,2.97-6.65,6.64,0,3.67,2.97,6.65,6.64,6.65,3.67,0,6.65-2.97,6.65-6.64,0,0,0,0,0,0h0c0-3.67-2.97-6.64-6.64-6.64h0Z"/>
          <path class="cls-2" d="M40.5,99.64c-3.83-1.3-7.98.75-9.28,4.58-1.3,3.83.75,7.98,4.58,9.28,3.83,1.3,7.98-.75,9.28-4.58.25-.75.39-1.54.39-2.33h0c.04-3.15-1.97-5.96-4.97-6.95Z"/>
          <circle class="cls-2" cx="62.36" cy="106.57" r="8.03"/>
          <circle class="cls-2" cx="110.3" cy="106.57" r="8.03"/>
          <circle class="cls-2" cx="86.42" cy="106.57" r="8.03"/>
          <path class="cls-2" d="M14.22,87.72c2.9,0,5.26-2.35,5.26-5.26,0-2.9-2.35-5.26-5.26-5.26s-5.26,2.35-5.26,5.26c0,0,0,0,0,0h0c0,2.9,2.35,5.25,5.25,5.25h0Z"/>
          <path class="cls-2" d="M38.3,88.78c3.49,0,6.32-2.83,6.32-6.32,0-3.49-2.83-6.32-6.32-6.32-3.49,0-6.32,2.83-6.32,6.32h0c-.01,3.48,2.8,6.31,6.28,6.32.01,0,.03,0,.04,0Z"/>
          <circle class="cls-2" cx="62.36" cy="82.46" r="8.03"/>
          <circle class="cls-2" cx="86.42" cy="82.46" r="8.03"/>
          <path class="cls-2" d="M110.48,90.49c4.43.02,8.04-3.56,8.06-8s-3.56-8.04-8-8.06c-4.43-.02-8.04,3.56-8.06,8v.04c0,4.42,3.58,8.01,8,8.03Z"/>
          <path class="cls-2" d="M38.3,63.98c3.49,0,6.33-2.83,6.33-6.32s-2.83-6.33-6.32-6.33-6.33,2.83-6.33,6.32h0c.01,3.48,2.84,6.3,6.32,6.3v.03Z"/>
          <path class="cls-2" d="M134.81,63.98c3.49,0,6.33-2.84,6.32-6.33,0-3.49-2.84-6.33-6.33-6.32-3.49,0-6.32,2.83-6.32,6.32h0c-.02,3.48,2.79,6.31,6.27,6.33.02,0,.04,0,.06,0Z"/>
          <path class="cls-2" d="M14.03,61.41c1.69,0,3.07-1.37,3.07-3.06,0-1.69-1.37-3.07-3.06-3.07-1.69,0-3.07,1.37-3.07,3.06,0,0,0,.02,0,.02h0c0,1.69,1.37,3.05,3.06,3.05,0,0,0,0,0,0Z"/>
          <circle class="cls-2" cx="110.5" cy="58.35" r="6.9"/>
          <circle class="cls-2" cx="62.36" cy="58.35" r="6.9"/>
          <circle class="cls-2" cx="86.42" cy="58.35" r="8.03"/>
          <path class="cls-2" d="M38.3,37.3c1.69,0,3.07-1.37,3.07-3.07s-1.37-3.07-3.07-3.07-3.07,1.37-3.07,3.07h0c0,1.69,1.37,3.07,3.06,3.07,0,0,0,0,0,0Z"/>
          <circle class="cls-2" cx="62.36" cy="34.23" r="5.26"/>
          <circle class="cls-2" cx="86.42" cy="34.23" r="6.64"/>
          <circle class="cls-2" cx="110.5" cy="34.23" r="5.26"/>
          <path class="cls-2" d="M134.57,37.3c1.69,0,3.07-1.37,3.07-3.07s-1.37-3.07-3.07-3.07c-1.69,0-3.07,1.37-3.07,3.07h0c0,1.69,1.37,3.07,3.06,3.07,0,0,0,0,0,0Z"/>
          <path class="cls-2" d="M16.04,125.75c-2.72-1.02-5.76.37-6.77,3.09-1.02,2.72.37,5.76,3.09,6.77,2.72,1.02,5.76-.37,6.77-3.09.22-.59.33-1.21.33-1.83h0c.03-2.21-1.35-4.19-3.42-4.94Z"/>
          <path class="cls-2" d="M136.79,125.94c-2.95-1.11-6.24.39-7.35,3.34-1.11,2.95.39,6.24,3.34,7.35s6.24-.39,7.35-3.34c.24-.64.36-1.31.36-1.99h0c.03-2.39-1.45-4.54-3.7-5.36Z"/>
          <path class="cls-2" d="M113.02,123.06c-4.21-1.43-8.78.83-10.2,5.04-1.43,4.21.83,8.78,5.04,10.2,4.21,1.43,8.78-.83,10.2-5.04.28-.83.42-1.7.43-2.57h0c.04-3.46-2.17-6.55-5.46-7.63Z"/>
          <circle class="cls-2" cx="86.42" cy="130.69" r="8.03"/>
          <circle class="cls-2" cx="62.36" cy="130.69" r="8.03"/>
          <path class="cls-2" d="M38.15,124.37c-3.49,0-6.33,2.83-6.34,6.32,0,3.49,2.83,6.33,6.32,6.34,3.49,0,6.33-2.83,6.34-6.32,0,0,0,0,0,0h0c0-3.49-2.83-6.32-6.32-6.32h0Z"/>
          <path class="cls-2" d="M134.45,147.69c-2.79-.01-5.07,2.25-5.08,5.04-.01,2.79,2.25,5.07,5.04,5.08,2.79.01,5.07-2.25,5.08-5.04v-.02c0-2.79-2.25-5.05-5.04-5.06Z"/>
          <path class="cls-2" d="M38.3,149.17c-3.48,0-6.3,2.82-6.3,6.3s2.82,6.3,6.3,6.3,6.3-2.82,6.3-6.3h0c0-3.48-2.82-6.3-6.3-6.3Z"/>
          <path class="cls-2" d="M158.11,152.75c0-1.69-1.37-3.07-3.06-3.07s-3.07,1.37-3.07,3.06,1.37,3.07,3.06,3.07h0c1.69,0,3.07-1.37,3.07-3.06Z"/>
          <circle class="cls-2" cx="62.36" cy="154.8" r="6.9"/>
          <circle class="cls-2" cx="86.42" cy="154.8" r="8.03"/>
          <path class="cls-2" d="M14.22,151.73c-1.69,0-3.07,1.37-3.07,3.06,0,1.69,1.37,3.07,3.06,3.07,1.69,0,3.07-1.37,3.07-3.06,0,0,0,0,0,0,0-1.69-1.37-3.07-3.06-3.07Z"/>
          <circle class="cls-2" cx="110.5" cy="178.91" r="5.26"/>
          <circle class="cls-2" cx="86.42" cy="178.91" r="6.64"/>
          <circle class="cls-2" cx="62.36" cy="178.91" r="5.26"/>
          <path class="cls-2" d="M38.3,175.98c-1.69,0-3.07,1.37-3.07,3.06,0,1.69,1.37,3.07,3.06,3.07,1.69,0,3.07-1.37,3.07-3.06,0,0,0,0,0,0,0-1.69-1.37-3.07-3.06-3.07Z"/>
          <path class="cls-1" d="M166.74,113.67h0c-1.29-.72-2.58-1.43-3.85-2.11-9-4.9-16.8-9.14-16.8-17.1,0-8.7,8.5-15.5,19.39-15.5,8.82.34,17.1,4.32,22.87,11l13.57-13c-9.29-10.25-22.4-16.2-36.23-16.43-10.99-.2-21.71,3.46-30.29,10.33-7.95,6.41-12.58,16.06-12.6,26.26,0,12.66,7.79,22.6,25.26,32.21,15.22,8.45,21.42,12.67,21.42,20.58,0,8.66-9.76,16-21.32,16-7.03-.09-13.83-2.51-19.33-6.88l-.24-.19-.11-.09c-.12-.08-.23-.18-.35-.27l-.22-.17-.35-.28-.06-.03c-2.78-2.32-5.3-4.93-7.5-7.8h0l-.39-.5c-.91-1.23-1.76-2.5-2.56-3.8l-15.83,10.13c2.32,4.38,5.33,8.37,8.9,11.81,9.52,9.89,22.51,15.69,36.23,16.19,27.36,0,46.47-15.36,46.47-37.36-.03-13.56-7.32-22.79-26.06-33Z"/>
        </g>
      </g>
    </g>
  </g>
</svg>